<mxfile host="app.diagrams.net" agent="Mozilla/5.0 (Windows NT 10.0; Win64; x64) AppleWebKit/537.36 (KHTML, like Gecko) Chrome/135.0.0.0 Safari/537.36" version="26.2.14">
  <diagram id="rG1o_rhkDMI7FuzhGEMY" name="Página-2">
    <mxGraphModel grid="1" page="1" gridSize="10" guides="1" tooltips="1" connect="1" arrows="1" fold="1" pageScale="1" pageWidth="827" pageHeight="1169" math="0" shadow="0">
      <root>
        <mxCell id="0" />
        <mxCell id="1" parent="0" />
        <mxCell id="YrNmfHhe3l2zanrwiK9t-1" value="Indisponibilidade" style="whiteSpace=wrap;html=1;align=center;" vertex="1" parent="1">
          <mxGeometry x="-530" y="40" width="100" height="40" as="geometry" />
        </mxCell>
        <mxCell id="YrNmfHhe3l2zanrwiK9t-2" value="R1" style="rhombus;whiteSpace=wrap;html=1;" vertex="1" parent="1">
          <mxGeometry x="-530" y="140" width="100" height="50" as="geometry" />
        </mxCell>
        <mxCell id="YrNmfHhe3l2zanrwiK9t-3" value="Ordem de Serviço" style="whiteSpace=wrap;html=1;" vertex="1" parent="1">
          <mxGeometry x="-540" y="250" width="120" height="60" as="geometry" />
        </mxCell>
        <mxCell id="YrNmfHhe3l2zanrwiK9t-4" value="Data" style="ellipse;whiteSpace=wrap;html=1;" vertex="1" parent="1">
          <mxGeometry x="-377.64" y="30" width="50" height="20" as="geometry" />
        </mxCell>
        <mxCell id="YrNmfHhe3l2zanrwiK9t-5" value="Hora" style="ellipse;whiteSpace=wrap;html=1;" vertex="1" parent="1">
          <mxGeometry x="-625" y="10" width="50" height="20" as="geometry" />
        </mxCell>
        <mxCell id="YrNmfHhe3l2zanrwiK9t-6" value="Equipamento" style="ellipse;whiteSpace=wrap;html=1;" vertex="1" parent="1">
          <mxGeometry x="-700" y="40" width="90" height="30" as="geometry" />
        </mxCell>
        <mxCell id="YrNmfHhe3l2zanrwiK9t-8" value="" style="endArrow=none;html=1;rounded=0;entryX=0.5;entryY=0;entryDx=0;entryDy=0;exitX=0.5;exitY=1;exitDx=0;exitDy=0;" edge="1" parent="1" source="YrNmfHhe3l2zanrwiK9t-2" target="YrNmfHhe3l2zanrwiK9t-3">
          <mxGeometry width="50" height="50" relative="1" as="geometry">
            <mxPoint x="-290" y="290" as="sourcePoint" />
            <mxPoint x="-240" y="240" as="targetPoint" />
          </mxGeometry>
        </mxCell>
        <mxCell id="YrNmfHhe3l2zanrwiK9t-18" value="(1:N)" style="edgeLabel;html=1;align=center;verticalAlign=middle;resizable=0;points=[];" connectable="0" vertex="1" parent="YrNmfHhe3l2zanrwiK9t-8">
          <mxGeometry x="-0.2138" y="1" relative="1" as="geometry">
            <mxPoint as="offset" />
          </mxGeometry>
        </mxCell>
        <mxCell id="YrNmfHhe3l2zanrwiK9t-9" value="" style="endArrow=none;html=1;rounded=0;exitX=0.5;exitY=1;exitDx=0;exitDy=0;entryX=0.5;entryY=0;entryDx=0;entryDy=0;" edge="1" parent="1" source="YrNmfHhe3l2zanrwiK9t-1" target="YrNmfHhe3l2zanrwiK9t-2">
          <mxGeometry width="50" height="50" relative="1" as="geometry">
            <mxPoint x="-540" y="270" as="sourcePoint" />
            <mxPoint x="-490" y="220" as="targetPoint" />
          </mxGeometry>
        </mxCell>
        <mxCell id="YrNmfHhe3l2zanrwiK9t-17" value="(1:1)" style="edgeLabel;html=1;align=center;verticalAlign=middle;resizable=0;points=[];" connectable="0" vertex="1" parent="YrNmfHhe3l2zanrwiK9t-9">
          <mxGeometry x="0.0482" y="1" relative="1" as="geometry">
            <mxPoint as="offset" />
          </mxGeometry>
        </mxCell>
        <mxCell id="YrNmfHhe3l2zanrwiK9t-10" value="" style="endArrow=none;html=1;rounded=0;entryX=0;entryY=1;entryDx=0;entryDy=0;exitX=1;exitY=0.5;exitDx=0;exitDy=0;" edge="1" parent="1" source="YrNmfHhe3l2zanrwiK9t-1" target="YrNmfHhe3l2zanrwiK9t-4">
          <mxGeometry width="50" height="50" relative="1" as="geometry">
            <mxPoint x="-500" y="270" as="sourcePoint" />
            <mxPoint x="-450" y="220" as="targetPoint" />
          </mxGeometry>
        </mxCell>
        <mxCell id="YrNmfHhe3l2zanrwiK9t-11" value="" style="endArrow=none;html=1;rounded=0;entryX=0.5;entryY=0;entryDx=0;entryDy=0;exitX=0.5;exitY=1;exitDx=0;exitDy=0;" edge="1" parent="1" source="YrNmfHhe3l2zanrwiK9t-3" target="d9bt7m6Flo3YPf83TVMG-16">
          <mxGeometry width="50" height="50" relative="1" as="geometry">
            <mxPoint x="-170" y="310" as="sourcePoint" />
            <mxPoint x="-480" y="350" as="targetPoint" />
          </mxGeometry>
        </mxCell>
        <mxCell id="d9bt7m6Flo3YPf83TVMG-18" value="(1:N)" style="edgeLabel;html=1;align=center;verticalAlign=middle;resizable=0;points=[];" connectable="0" vertex="1" parent="YrNmfHhe3l2zanrwiK9t-11">
          <mxGeometry x="-0.0207" y="1" relative="1" as="geometry">
            <mxPoint as="offset" />
          </mxGeometry>
        </mxCell>
        <mxCell id="YrNmfHhe3l2zanrwiK9t-12" value="" style="endArrow=none;html=1;rounded=0;exitX=0;exitY=0.5;exitDx=0;exitDy=0;entryX=0.5;entryY=1;entryDx=0;entryDy=0;" edge="1" parent="1" source="YrNmfHhe3l2zanrwiK9t-1" target="YrNmfHhe3l2zanrwiK9t-5">
          <mxGeometry width="50" height="50" relative="1" as="geometry">
            <mxPoint x="-480" y="190" as="sourcePoint" />
            <mxPoint x="-550" y="90" as="targetPoint" />
          </mxGeometry>
        </mxCell>
        <mxCell id="YrNmfHhe3l2zanrwiK9t-13" value="" style="endArrow=none;html=1;rounded=0;entryX=1;entryY=1;entryDx=0;entryDy=0;exitX=0;exitY=0.75;exitDx=0;exitDy=0;" edge="1" parent="1" source="YrNmfHhe3l2zanrwiK9t-1" target="YrNmfHhe3l2zanrwiK9t-6">
          <mxGeometry width="50" height="50" relative="1" as="geometry">
            <mxPoint x="-500" y="270" as="sourcePoint" />
            <mxPoint x="-450" y="220" as="targetPoint" />
          </mxGeometry>
        </mxCell>
        <mxCell id="uVzsmerHP4T5rte4U3hn-1" value="Subestação" style="whiteSpace=wrap;html=1;" vertex="1" parent="1">
          <mxGeometry x="-776" y="880" width="120" height="60" as="geometry" />
        </mxCell>
        <mxCell id="uVzsmerHP4T5rte4U3hn-2" value="Capacidade" style="ellipse;whiteSpace=wrap;html=1;" vertex="1" parent="1">
          <mxGeometry x="-876" y="850" width="80" height="20" as="geometry" />
        </mxCell>
        <mxCell id="uVzsmerHP4T5rte4U3hn-3" value="Status" style="ellipse;whiteSpace=wrap;html=1;" vertex="1" parent="1">
          <mxGeometry x="-796" y="820" width="50" height="20" as="geometry" />
        </mxCell>
        <mxCell id="uVzsmerHP4T5rte4U3hn-4" value="Data_Inauguração" style="ellipse;whiteSpace=wrap;html=1;" vertex="1" parent="1">
          <mxGeometry x="-901" y="940" width="105" height="20" as="geometry" />
        </mxCell>
        <mxCell id="uVzsmerHP4T5rte4U3hn-5" value="Nome_subestação" style="ellipse;whiteSpace=wrap;html=1;" vertex="1" parent="1">
          <mxGeometry x="-776" y="1000" width="120" height="20" as="geometry" />
        </mxCell>
        <mxCell id="uVzsmerHP4T5rte4U3hn-6" value="ID_Subestação" style="ellipse;whiteSpace=wrap;html=1;fontStyle=4" vertex="1" parent="1">
          <mxGeometry x="-756" y="800" width="100" height="20" as="geometry" />
        </mxCell>
        <mxCell id="uVzsmerHP4T5rte4U3hn-7" value="" style="endArrow=none;html=1;rounded=0;entryX=1;entryY=0.5;entryDx=0;entryDy=0;exitX=0;exitY=0;exitDx=0;exitDy=0;" edge="1" parent="1" source="uVzsmerHP4T5rte4U3hn-1" target="uVzsmerHP4T5rte4U3hn-2">
          <mxGeometry width="50" height="50" relative="1" as="geometry">
            <mxPoint x="-906" y="910" as="sourcePoint" />
            <mxPoint x="-856" y="860" as="targetPoint" />
          </mxGeometry>
        </mxCell>
        <mxCell id="uVzsmerHP4T5rte4U3hn-8" value="" style="endArrow=none;html=1;rounded=0;entryX=0;entryY=1;entryDx=0;entryDy=0;exitX=1;exitY=0.5;exitDx=0;exitDy=0;" edge="1" parent="1" source="uVzsmerHP4T5rte4U3hn-4" target="uVzsmerHP4T5rte4U3hn-1">
          <mxGeometry width="50" height="50" relative="1" as="geometry">
            <mxPoint x="-846" y="1010" as="sourcePoint" />
            <mxPoint x="-796" y="960" as="targetPoint" />
          </mxGeometry>
        </mxCell>
        <mxCell id="uVzsmerHP4T5rte4U3hn-9" value="" style="endArrow=none;html=1;rounded=0;entryX=0.5;entryY=0;entryDx=0;entryDy=0;exitX=0.5;exitY=1;exitDx=0;exitDy=0;" edge="1" parent="1" source="uVzsmerHP4T5rte4U3hn-3" target="uVzsmerHP4T5rte4U3hn-1">
          <mxGeometry width="50" height="50" relative="1" as="geometry">
            <mxPoint x="-846" y="1010" as="sourcePoint" />
            <mxPoint x="-796" y="960" as="targetPoint" />
          </mxGeometry>
        </mxCell>
        <mxCell id="uVzsmerHP4T5rte4U3hn-10" value="" style="endArrow=none;html=1;rounded=0;entryX=0.5;entryY=1;entryDx=0;entryDy=0;exitX=0.75;exitY=0;exitDx=0;exitDy=0;" edge="1" parent="1" source="uVzsmerHP4T5rte4U3hn-1" target="uVzsmerHP4T5rte4U3hn-6">
          <mxGeometry width="50" height="50" relative="1" as="geometry">
            <mxPoint x="-776" y="890" as="sourcePoint" />
            <mxPoint x="-726" y="840" as="targetPoint" />
          </mxGeometry>
        </mxCell>
        <mxCell id="uVzsmerHP4T5rte4U3hn-11" value="" style="endArrow=none;html=1;rounded=0;entryX=0.5;entryY=1;entryDx=0;entryDy=0;exitX=0.5;exitY=0;exitDx=0;exitDy=0;" edge="1" parent="1" source="uVzsmerHP4T5rte4U3hn-5" target="uVzsmerHP4T5rte4U3hn-1">
          <mxGeometry width="50" height="50" relative="1" as="geometry">
            <mxPoint x="-696" y="1020" as="sourcePoint" />
            <mxPoint x="-646" y="970" as="targetPoint" />
          </mxGeometry>
        </mxCell>
        <mxCell id="d9bt7m6Flo3YPf83TVMG-1" value="Complexo" style="whiteSpace=wrap;html=1;" vertex="1" parent="1">
          <mxGeometry x="-540" y="520" width="120" height="60" as="geometry" />
        </mxCell>
        <mxCell id="d9bt7m6Flo3YPf83TVMG-2" value="Nome_Complexo" style="ellipse;whiteSpace=wrap;html=1;" vertex="1" parent="1">
          <mxGeometry x="-475" y="470" width="105" height="20" as="geometry" />
        </mxCell>
        <mxCell id="d9bt7m6Flo3YPf83TVMG-3" value="Data_Criação" style="ellipse;whiteSpace=wrap;html=1;" vertex="1" parent="1">
          <mxGeometry x="-590" y="470" width="105" height="20" as="geometry" />
        </mxCell>
        <mxCell id="d9bt7m6Flo3YPf83TVMG-4" value="Observações" style="ellipse;whiteSpace=wrap;html=1;" vertex="1" parent="1">
          <mxGeometry x="-640" y="530" width="80" height="20" as="geometry" />
        </mxCell>
        <mxCell id="d9bt7m6Flo3YPf83TVMG-5" value="Descrição" style="ellipse;whiteSpace=wrap;html=1;" vertex="1" parent="1">
          <mxGeometry x="-640" y="500" width="80" height="20" as="geometry" />
        </mxCell>
        <mxCell id="d9bt7m6Flo3YPf83TVMG-6" value="&lt;u&gt;ID_Complexo&lt;/u&gt;" style="ellipse;whiteSpace=wrap;html=1;" vertex="1" parent="1">
          <mxGeometry x="-400" y="510" width="80" height="20" as="geometry" />
        </mxCell>
        <mxCell id="d9bt7m6Flo3YPf83TVMG-7" value="Localização" style="ellipse;whiteSpace=wrap;html=1;" vertex="1" parent="1">
          <mxGeometry x="-400" y="540" width="76.5" height="20" as="geometry" />
        </mxCell>
        <mxCell id="d9bt7m6Flo3YPf83TVMG-8" value="" style="endArrow=none;html=1;rounded=0;entryX=1;entryY=0.5;entryDx=0;entryDy=0;exitX=0;exitY=0.5;exitDx=0;exitDy=0;" edge="1" parent="1" source="d9bt7m6Flo3YPf83TVMG-1" target="d9bt7m6Flo3YPf83TVMG-4">
          <mxGeometry width="50" height="50" relative="1" as="geometry">
            <mxPoint x="-500" y="670" as="sourcePoint" />
            <mxPoint x="-450" y="620" as="targetPoint" />
          </mxGeometry>
        </mxCell>
        <mxCell id="d9bt7m6Flo3YPf83TVMG-9" value="" style="endArrow=none;html=1;rounded=0;exitX=1.002;exitY=0.609;exitDx=0;exitDy=0;entryX=0;entryY=0.5;entryDx=0;entryDy=0;exitPerimeter=0;" edge="1" parent="1" source="d9bt7m6Flo3YPf83TVMG-1" target="d9bt7m6Flo3YPf83TVMG-7">
          <mxGeometry width="50" height="50" relative="1" as="geometry">
            <mxPoint x="-410" y="685" as="sourcePoint" />
            <mxPoint x="-390" y="680" as="targetPoint" />
          </mxGeometry>
        </mxCell>
        <mxCell id="d9bt7m6Flo3YPf83TVMG-10" value="" style="endArrow=none;html=1;rounded=0;entryX=1;entryY=0.5;entryDx=0;entryDy=0;exitX=0;exitY=0.25;exitDx=0;exitDy=0;" edge="1" parent="1" source="d9bt7m6Flo3YPf83TVMG-1" target="d9bt7m6Flo3YPf83TVMG-5">
          <mxGeometry width="50" height="50" relative="1" as="geometry">
            <mxPoint x="-500" y="670" as="sourcePoint" />
            <mxPoint x="-450" y="620" as="targetPoint" />
          </mxGeometry>
        </mxCell>
        <mxCell id="d9bt7m6Flo3YPf83TVMG-11" value="" style="endArrow=none;html=1;rounded=0;exitX=1;exitY=0.25;exitDx=0;exitDy=0;entryX=0;entryY=0.5;entryDx=0;entryDy=0;" edge="1" parent="1" source="d9bt7m6Flo3YPf83TVMG-1" target="d9bt7m6Flo3YPf83TVMG-6">
          <mxGeometry width="50" height="50" relative="1" as="geometry">
            <mxPoint x="-407" y="557" as="sourcePoint" />
            <mxPoint x="-390" y="560" as="targetPoint" />
          </mxGeometry>
        </mxCell>
        <mxCell id="d9bt7m6Flo3YPf83TVMG-12" value="" style="endArrow=none;html=1;rounded=0;exitX=0.75;exitY=0;exitDx=0;exitDy=0;entryX=0.5;entryY=1;entryDx=0;entryDy=0;" edge="1" parent="1" source="d9bt7m6Flo3YPf83TVMG-1" target="d9bt7m6Flo3YPf83TVMG-2">
          <mxGeometry width="50" height="50" relative="1" as="geometry">
            <mxPoint x="-410" y="535" as="sourcePoint" />
            <mxPoint x="-390" y="530" as="targetPoint" />
          </mxGeometry>
        </mxCell>
        <mxCell id="d9bt7m6Flo3YPf83TVMG-13" value="" style="endArrow=none;html=1;rounded=0;exitX=0.25;exitY=0;exitDx=0;exitDy=0;entryX=0.5;entryY=1;entryDx=0;entryDy=0;" edge="1" parent="1" source="d9bt7m6Flo3YPf83TVMG-1" target="d9bt7m6Flo3YPf83TVMG-3">
          <mxGeometry width="50" height="50" relative="1" as="geometry">
            <mxPoint x="-440" y="520" as="sourcePoint" />
            <mxPoint x="-412" y="500" as="targetPoint" />
          </mxGeometry>
        </mxCell>
        <mxCell id="d9bt7m6Flo3YPf83TVMG-14" value="" style="endArrow=none;html=1;rounded=0;entryX=0.5;entryY=1;entryDx=0;entryDy=0;exitX=1;exitY=0.5;exitDx=0;exitDy=0;" edge="1" parent="1" source="d9bt7m6Flo3YPf83TVMG-20" target="d9bt7m6Flo3YPf83TVMG-1">
          <mxGeometry width="50" height="50" relative="1" as="geometry">
            <mxPoint x="-480" y="680" as="sourcePoint" />
            <mxPoint x="-413.38" y="1580" as="targetPoint" />
          </mxGeometry>
        </mxCell>
        <mxCell id="eVi2e92E73o1z0uFLRz4-2" value="t" style="edgeLabel;html=1;align=center;verticalAlign=middle;resizable=0;points=[];" connectable="0" vertex="1" parent="d9bt7m6Flo3YPf83TVMG-14">
          <mxGeometry x="-0.0652" y="7" relative="1" as="geometry">
            <mxPoint y="1" as="offset" />
          </mxGeometry>
        </mxCell>
        <mxCell id="rEhXfot8uibiOhCagt_M-21" value="(1:N)" style="edgeLabel;html=1;align=center;verticalAlign=middle;resizable=0;points=[];" connectable="0" vertex="1" parent="d9bt7m6Flo3YPf83TVMG-14">
          <mxGeometry x="-0.0639" y="-1" relative="1" as="geometry">
            <mxPoint as="offset" />
          </mxGeometry>
        </mxCell>
        <mxCell id="d9bt7m6Flo3YPf83TVMG-16" value="R2" style="rhombus;whiteSpace=wrap;html=1;" vertex="1" parent="1">
          <mxGeometry x="-525" y="360" width="90" height="50" as="geometry" />
        </mxCell>
        <mxCell id="d9bt7m6Flo3YPf83TVMG-17" value="" style="endArrow=none;html=1;rounded=0;entryX=0.5;entryY=1;entryDx=0;entryDy=0;exitX=0.5;exitY=0;exitDx=0;exitDy=0;" edge="1" parent="1" source="d9bt7m6Flo3YPf83TVMG-1" target="d9bt7m6Flo3YPf83TVMG-16">
          <mxGeometry width="50" height="50" relative="1" as="geometry">
            <mxPoint x="-460" y="340" as="sourcePoint" />
            <mxPoint x="-470" y="360" as="targetPoint" />
          </mxGeometry>
        </mxCell>
        <mxCell id="d9bt7m6Flo3YPf83TVMG-19" value="(N;M)" style="edgeLabel;html=1;align=center;verticalAlign=middle;resizable=0;points=[];" connectable="0" vertex="1" parent="d9bt7m6Flo3YPf83TVMG-17">
          <mxGeometry x="0.1271" y="-2" relative="1" as="geometry">
            <mxPoint as="offset" />
          </mxGeometry>
        </mxCell>
        <mxCell id="d9bt7m6Flo3YPf83TVMG-20" value="" style="triangle;whiteSpace=wrap;html=1;rotation=-90;" vertex="1" parent="1">
          <mxGeometry x="-510" y="690" width="60" height="80" as="geometry" />
        </mxCell>
        <mxCell id="d9bt7m6Flo3YPf83TVMG-22" value="" style="endArrow=none;html=1;rounded=0;exitX=1;exitY=0.5;exitDx=0;exitDy=0;entryX=0;entryY=0;entryDx=0;entryDy=0;entryPerimeter=0;" edge="1" parent="1" source="uVzsmerHP4T5rte4U3hn-1" target="d9bt7m6Flo3YPf83TVMG-20">
          <mxGeometry width="50" height="50" relative="1" as="geometry">
            <mxPoint x="-676" y="890" as="sourcePoint" />
            <mxPoint x="-517" y="760" as="targetPoint" />
          </mxGeometry>
        </mxCell>
        <mxCell id="rEhXfot8uibiOhCagt_M-23" value="(1:1)" style="edgeLabel;html=1;align=center;verticalAlign=middle;resizable=0;points=[];" connectable="0" vertex="1" parent="d9bt7m6Flo3YPf83TVMG-22">
          <mxGeometry x="0.0275" y="-3" relative="1" as="geometry">
            <mxPoint as="offset" />
          </mxGeometry>
        </mxCell>
        <mxCell id="6C1804AICCskK-gqlRZX-1" value="Inversor" style="whiteSpace=wrap;html=1;" vertex="1" parent="1">
          <mxGeometry x="-325" y="1550" width="120" height="60" as="geometry" />
        </mxCell>
        <mxCell id="6C1804AICCskK-gqlRZX-2" style="edgeStyle=orthogonalEdgeStyle;rounded=0;orthogonalLoop=1;jettySize=auto;html=1;endArrow=none;startFill=0;" edge="1" parent="1" source="6C1804AICCskK-gqlRZX-78">
          <mxGeometry relative="1" as="geometry">
            <Array as="points">
              <mxPoint x="-263.38" y="1550" />
              <mxPoint x="-265.38" y="1550" />
            </Array>
            <mxPoint x="-263.38" y="1550" as="targetPoint" />
          </mxGeometry>
        </mxCell>
        <mxCell id="rEhXfot8uibiOhCagt_M-27" value="(1:1)" style="edgeLabel;html=1;align=center;verticalAlign=middle;resizable=0;points=[];" connectable="0" vertex="1" parent="6C1804AICCskK-gqlRZX-2">
          <mxGeometry x="-0.1613" y="3" relative="1" as="geometry">
            <mxPoint as="offset" />
          </mxGeometry>
        </mxCell>
        <mxCell id="6C1804AICCskK-gqlRZX-3" value="Eletrocentro&amp;nbsp;" style="whiteSpace=wrap;html=1;" vertex="1" parent="1">
          <mxGeometry x="-319" y="1180" width="120" height="60" as="geometry" />
        </mxCell>
        <mxCell id="6C1804AICCskK-gqlRZX-4" value="Long" style="ellipse;whiteSpace=wrap;html=1;" vertex="1" parent="1">
          <mxGeometry x="-141.62" y="1630" width="50" height="20" as="geometry" />
        </mxCell>
        <mxCell id="6C1804AICCskK-gqlRZX-5" value="Nome_inversor" style="ellipse;whiteSpace=wrap;html=1;" vertex="1" parent="1">
          <mxGeometry x="-245" y="1510" width="90" height="20" as="geometry" />
        </mxCell>
        <mxCell id="6C1804AICCskK-gqlRZX-6" value="ID_Inversor" style="ellipse;whiteSpace=wrap;html=1;fontStyle=4" vertex="1" parent="1">
          <mxGeometry x="-335" y="1510" width="70" height="20" as="geometry" />
        </mxCell>
        <mxCell id="6C1804AICCskK-gqlRZX-7" value="Modelo" style="ellipse;whiteSpace=wrap;html=1;" vertex="1" parent="1">
          <mxGeometry x="-141.62" y="1540" width="50" height="20" as="geometry" />
        </mxCell>
        <mxCell id="6C1804AICCskK-gqlRZX-8" value="Marca" style="ellipse;whiteSpace=wrap;html=1;" vertex="1" parent="1">
          <mxGeometry x="-141.62" y="1510" width="50" height="20" as="geometry" />
        </mxCell>
        <mxCell id="6C1804AICCskK-gqlRZX-9" value="Status" style="ellipse;whiteSpace=wrap;html=1;" vertex="1" parent="1">
          <mxGeometry x="-141.62" y="1570" width="50" height="20" as="geometry" />
        </mxCell>
        <mxCell id="6C1804AICCskK-gqlRZX-10" value="Data_Instalação" style="ellipse;whiteSpace=wrap;html=1;" vertex="1" parent="1">
          <mxGeometry x="-245" y="1650" width="100" height="20" as="geometry" />
        </mxCell>
        <mxCell id="6C1804AICCskK-gqlRZX-11" value="Potência" style="ellipse;whiteSpace=wrap;html=1;" vertex="1" parent="1">
          <mxGeometry x="-335" y="1650" width="70" height="20" as="geometry" />
        </mxCell>
        <mxCell id="6C1804AICCskK-gqlRZX-12" value="Lat" style="ellipse;whiteSpace=wrap;html=1;" vertex="1" parent="1">
          <mxGeometry x="-141.62" y="1600" width="50" height="20" as="geometry" />
        </mxCell>
        <mxCell id="6C1804AICCskK-gqlRZX-13" value="Data Instalação" style="ellipse;whiteSpace=wrap;html=1;" vertex="1" parent="1">
          <mxGeometry x="-219" y="1280" width="110" height="20" as="geometry" />
        </mxCell>
        <mxCell id="6C1804AICCskK-gqlRZX-14" value="ID_Eletrocentro" style="ellipse;whiteSpace=wrap;html=1;fontStyle=4" vertex="1" parent="1">
          <mxGeometry x="-439" y="1190" width="100" height="20" as="geometry" />
        </mxCell>
        <mxCell id="6C1804AICCskK-gqlRZX-15" value="Status" style="ellipse;whiteSpace=wrap;html=1;" vertex="1" parent="1">
          <mxGeometry x="-165.75" y="1180" width="50" height="20" as="geometry" />
        </mxCell>
        <mxCell id="6C1804AICCskK-gqlRZX-16" value="Nome_eletrocentro" style="ellipse;whiteSpace=wrap;html=1;" vertex="1" parent="1">
          <mxGeometry x="-160.75" y="1220" width="120" height="20" as="geometry" />
        </mxCell>
        <mxCell id="6C1804AICCskK-gqlRZX-17" value="Capacidade" style="ellipse;whiteSpace=wrap;html=1;" vertex="1" parent="1">
          <mxGeometry x="-204" y="1140" width="80" height="20" as="geometry" />
        </mxCell>
        <mxCell id="6C1804AICCskK-gqlRZX-18" style="edgeStyle=orthogonalEdgeStyle;rounded=0;orthogonalLoop=1;jettySize=auto;html=1;entryX=0.5;entryY=0;entryDx=0;entryDy=0;endArrow=none;startFill=0;" edge="1" parent="1" source="6C1804AICCskK-gqlRZX-76" target="6C1804AICCskK-gqlRZX-3">
          <mxGeometry relative="1" as="geometry">
            <mxPoint x="-263.38" y="1600" as="targetPoint" />
          </mxGeometry>
        </mxCell>
        <mxCell id="rEhXfot8uibiOhCagt_M-25" value="(1:1)" style="edgeLabel;html=1;align=center;verticalAlign=middle;resizable=0;points=[];" connectable="0" vertex="1" parent="6C1804AICCskK-gqlRZX-18">
          <mxGeometry x="0.1917" y="1" relative="1" as="geometry">
            <mxPoint as="offset" />
          </mxGeometry>
        </mxCell>
        <mxCell id="6C1804AICCskK-gqlRZX-19" value="Parque" style="whiteSpace=wrap;html=1;" vertex="1" parent="1">
          <mxGeometry x="-320" y="880" width="120" height="60" as="geometry" />
        </mxCell>
        <mxCell id="6C1804AICCskK-gqlRZX-20" value="String box" style="whiteSpace=wrap;html=1;" vertex="1" parent="1">
          <mxGeometry x="-325.14" y="1959" width="120" height="60" as="geometry" />
        </mxCell>
        <mxCell id="6C1804AICCskK-gqlRZX-21" value="Tracker" style="whiteSpace=wrap;html=1;" vertex="1" parent="1">
          <mxGeometry x="-319" y="2290" width="120" height="60" as="geometry" />
        </mxCell>
        <mxCell id="6C1804AICCskK-gqlRZX-22" value="ID_Parque" style="ellipse;whiteSpace=wrap;html=1;fontStyle=4" vertex="1" parent="1">
          <mxGeometry x="-183.37" y="890" width="85" height="20" as="geometry" />
        </mxCell>
        <mxCell id="6C1804AICCskK-gqlRZX-23" value="Nome_Parque" style="ellipse;whiteSpace=wrap;html=1;" vertex="1" parent="1">
          <mxGeometry x="-178.37" y="920" width="86.75" height="20" as="geometry" />
        </mxCell>
        <mxCell id="6C1804AICCskK-gqlRZX-24" value="Capacidade" style="ellipse;whiteSpace=wrap;html=1;" vertex="1" parent="1">
          <mxGeometry x="-183.37" y="860" width="100" height="20" as="geometry" />
        </mxCell>
        <mxCell id="6C1804AICCskK-gqlRZX-25" value="Data_Inauguração" style="ellipse;whiteSpace=wrap;html=1;fontStyle=0" vertex="1" parent="1">
          <mxGeometry x="-178.37" y="950" width="105" height="20" as="geometry" />
        </mxCell>
        <mxCell id="6C1804AICCskK-gqlRZX-26" value="Data_Instalação" style="ellipse;whiteSpace=wrap;html=1;" vertex="1" parent="1">
          <mxGeometry x="-151.76" y="1944" width="90" height="20" as="geometry" />
        </mxCell>
        <mxCell id="6C1804AICCskK-gqlRZX-27" value="ID_String_box" style="ellipse;whiteSpace=wrap;html=1;fontStyle=4" vertex="1" parent="1">
          <mxGeometry x="-155.14" y="1979" width="90" height="20" as="geometry" />
        </mxCell>
        <mxCell id="6C1804AICCskK-gqlRZX-28" value="Status" style="ellipse;whiteSpace=wrap;html=1;" vertex="1" parent="1">
          <mxGeometry x="-155.14" y="2014" width="90" height="20" as="geometry" />
        </mxCell>
        <mxCell id="6C1804AICCskK-gqlRZX-29" value="Long" style="ellipse;whiteSpace=wrap;html=1;" vertex="1" parent="1">
          <mxGeometry x="-183.51999999999998" y="1904" width="55" height="20" as="geometry" />
        </mxCell>
        <mxCell id="6C1804AICCskK-gqlRZX-30" value="Lat" style="ellipse;whiteSpace=wrap;html=1;" vertex="1" parent="1">
          <mxGeometry x="-380.14" y="1914" width="55" height="20" as="geometry" />
        </mxCell>
        <mxCell id="6C1804AICCskK-gqlRZX-31" value="Long" style="ellipse;whiteSpace=wrap;html=1;" vertex="1" parent="1">
          <mxGeometry x="-179" y="2310" width="55" height="20" as="geometry" />
        </mxCell>
        <mxCell id="6C1804AICCskK-gqlRZX-32" value="Lat" style="ellipse;whiteSpace=wrap;html=1;" vertex="1" parent="1">
          <mxGeometry x="-182.37" y="2360" width="55" height="20" as="geometry" />
        </mxCell>
        <mxCell id="6C1804AICCskK-gqlRZX-33" value="Sujidade" style="ellipse;whiteSpace=wrap;html=1;" vertex="1" parent="1">
          <mxGeometry x="-155" y="2280" width="55" height="20" as="geometry" />
        </mxCell>
        <mxCell id="6C1804AICCskK-gqlRZX-34" value="Data_Instalação" style="ellipse;whiteSpace=wrap;html=1;" vertex="1" parent="1">
          <mxGeometry x="-230.38" y="3110" width="120" height="20" as="geometry" />
        </mxCell>
        <mxCell id="6C1804AICCskK-gqlRZX-35" value="Data_Instalação" style="ellipse;whiteSpace=wrap;html=1;" vertex="1" parent="1">
          <mxGeometry x="-151.76" y="2690" width="120" height="20" as="geometry" />
        </mxCell>
        <mxCell id="6C1804AICCskK-gqlRZX-36" value="Potência" style="ellipse;whiteSpace=wrap;html=1;" vertex="1" parent="1">
          <mxGeometry x="-175.38" y="2630" width="75.38" height="20" as="geometry" />
        </mxCell>
        <mxCell id="6C1804AICCskK-gqlRZX-37" value="" style="endArrow=none;html=1;rounded=0;exitX=0.5;exitY=0;exitDx=0;exitDy=0;entryX=0.5;entryY=1;entryDx=0;entryDy=0;" edge="1" parent="1" source="6C1804AICCskK-gqlRZX-21" target="6C1804AICCskK-gqlRZX-20">
          <mxGeometry width="50" height="50" relative="1" as="geometry">
            <mxPoint x="-403.38" y="2280" as="sourcePoint" />
            <mxPoint x="-353.38" y="2230" as="targetPoint" />
          </mxGeometry>
        </mxCell>
        <mxCell id="rEhXfot8uibiOhCagt_M-30" value="(1:N)" style="edgeLabel;html=1;align=center;verticalAlign=middle;resizable=0;points=[];" connectable="0" vertex="1" parent="6C1804AICCskK-gqlRZX-37">
          <mxGeometry x="0.6215" relative="1" as="geometry">
            <mxPoint as="offset" />
          </mxGeometry>
        </mxCell>
        <mxCell id="rEhXfot8uibiOhCagt_M-31" value="(1:1)" style="edgeLabel;html=1;align=center;verticalAlign=middle;resizable=0;points=[];" connectable="0" vertex="1" parent="6C1804AICCskK-gqlRZX-37">
          <mxGeometry x="-0.5504" y="1" relative="1" as="geometry">
            <mxPoint as="offset" />
          </mxGeometry>
        </mxCell>
        <mxCell id="6C1804AICCskK-gqlRZX-38" value="" style="endArrow=none;html=1;rounded=0;entryX=0.5;entryY=1;entryDx=0;entryDy=0;" edge="1" parent="1" source="6C1804AICCskK-gqlRZX-40" target="6C1804AICCskK-gqlRZX-21">
          <mxGeometry width="50" height="50" relative="1" as="geometry">
            <mxPoint x="-264.38" y="2540" as="sourcePoint" />
            <mxPoint x="-264.38" y="2630" as="targetPoint" />
          </mxGeometry>
        </mxCell>
        <mxCell id="rEhXfot8uibiOhCagt_M-32" value="(1:N)" style="edgeLabel;html=1;align=center;verticalAlign=middle;resizable=0;points=[];" connectable="0" vertex="1" parent="6C1804AICCskK-gqlRZX-38">
          <mxGeometry x="0.5681" y="-1" relative="1" as="geometry">
            <mxPoint as="offset" />
          </mxGeometry>
        </mxCell>
        <mxCell id="rEhXfot8uibiOhCagt_M-33" value="(1:1)" style="edgeLabel;html=1;align=center;verticalAlign=middle;resizable=0;points=[];" connectable="0" vertex="1" parent="6C1804AICCskK-gqlRZX-38">
          <mxGeometry x="-0.722" relative="1" as="geometry">
            <mxPoint as="offset" />
          </mxGeometry>
        </mxCell>
        <mxCell id="6C1804AICCskK-gqlRZX-39" value="" style="endArrow=none;html=1;rounded=0;entryX=0.5;entryY=1;entryDx=0;entryDy=0;" edge="1" parent="1" target="6C1804AICCskK-gqlRZX-40">
          <mxGeometry width="50" height="50" relative="1" as="geometry">
            <mxPoint x="-261.38" y="2640" as="sourcePoint" />
            <mxPoint x="-261.15" y="2540" as="targetPoint" />
          </mxGeometry>
        </mxCell>
        <mxCell id="6C1804AICCskK-gqlRZX-40" value="Placa" style="whiteSpace=wrap;html=1;" vertex="1" parent="1">
          <mxGeometry x="-320.38" y="2640" width="120" height="60" as="geometry" />
        </mxCell>
        <mxCell id="6C1804AICCskK-gqlRZX-41" value="Módulo" style="whiteSpace=wrap;html=1;" vertex="1" parent="1">
          <mxGeometry x="-320.38" y="3030" width="120" height="60" as="geometry" />
        </mxCell>
        <mxCell id="6C1804AICCskK-gqlRZX-42" value="" style="endArrow=none;html=1;rounded=0;entryX=0.5;entryY=0;entryDx=0;entryDy=0;exitX=0.5;exitY=1;exitDx=0;exitDy=0;" edge="1" parent="1" source="6C1804AICCskK-gqlRZX-85" target="6C1804AICCskK-gqlRZX-41">
          <mxGeometry width="50" height="50" relative="1" as="geometry">
            <mxPoint x="-347" y="2480" as="sourcePoint" />
            <mxPoint x="-247.76999999999998" y="2180" as="targetPoint" />
            <Array as="points" />
          </mxGeometry>
        </mxCell>
        <mxCell id="rEhXfot8uibiOhCagt_M-35" value="(1:1)" style="edgeLabel;html=1;align=center;verticalAlign=middle;resizable=0;points=[];" connectable="0" vertex="1" parent="6C1804AICCskK-gqlRZX-42">
          <mxGeometry x="0.064" y="-1" relative="1" as="geometry">
            <mxPoint as="offset" />
          </mxGeometry>
        </mxCell>
        <mxCell id="6C1804AICCskK-gqlRZX-43" value="" style="endArrow=none;html=1;rounded=0;exitX=0.5;exitY=0;exitDx=0;exitDy=0;entryX=0.25;entryY=1;entryDx=0;entryDy=0;" edge="1" parent="1" source="eVi2e92E73o1z0uFLRz4-1" target="6C1804AICCskK-gqlRZX-41">
          <mxGeometry width="50" height="50" relative="1" as="geometry">
            <mxPoint x="-370" y="3110" as="sourcePoint" />
            <mxPoint x="-380.38" y="2950" as="targetPoint" />
            <Array as="points" />
          </mxGeometry>
        </mxCell>
        <mxCell id="6C1804AICCskK-gqlRZX-44" value="" style="endArrow=none;html=1;rounded=0;entryX=0.75;entryY=1;entryDx=0;entryDy=0;exitX=0.5;exitY=0;exitDx=0;exitDy=0;" edge="1" parent="1" source="6C1804AICCskK-gqlRZX-34" target="6C1804AICCskK-gqlRZX-41">
          <mxGeometry width="50" height="50" relative="1" as="geometry">
            <mxPoint x="-240.38" y="2900" as="sourcePoint" />
            <mxPoint x="-241.14999999999998" y="2800" as="targetPoint" />
          </mxGeometry>
        </mxCell>
        <mxCell id="6C1804AICCskK-gqlRZX-45" value="" style="endArrow=none;html=1;rounded=0;exitX=1;exitY=0.75;exitDx=0;exitDy=0;entryX=0;entryY=0.5;entryDx=0;entryDy=0;" edge="1" parent="1" source="6C1804AICCskK-gqlRZX-40" target="6C1804AICCskK-gqlRZX-35">
          <mxGeometry width="50" height="50" relative="1" as="geometry">
            <mxPoint x="-160.38" y="2880" as="sourcePoint" />
            <mxPoint x="-40.37999999999999" y="2710" as="targetPoint" />
          </mxGeometry>
        </mxCell>
        <mxCell id="6C1804AICCskK-gqlRZX-46" value="" style="endArrow=none;html=1;rounded=0;entryX=0;entryY=0.5;entryDx=0;entryDy=0;exitX=1;exitY=0.25;exitDx=0;exitDy=0;" edge="1" parent="1" source="6C1804AICCskK-gqlRZX-40" target="6C1804AICCskK-gqlRZX-36">
          <mxGeometry width="50" height="50" relative="1" as="geometry">
            <mxPoint x="-310.38" y="2695" as="sourcePoint" />
            <mxPoint x="-390.38" y="2700" as="targetPoint" />
          </mxGeometry>
        </mxCell>
        <mxCell id="6C1804AICCskK-gqlRZX-47" style="edgeStyle=orthogonalEdgeStyle;rounded=0;orthogonalLoop=1;jettySize=auto;html=1;exitX=0.25;exitY=1;exitDx=0;exitDy=0;entryX=0.57;entryY=0;entryDx=0;entryDy=0;entryPerimeter=0;endArrow=none;startFill=0;" edge="1" parent="1" source="6C1804AICCskK-gqlRZX-1" target="6C1804AICCskK-gqlRZX-11">
          <mxGeometry relative="1" as="geometry" />
        </mxCell>
        <mxCell id="6C1804AICCskK-gqlRZX-48" value="" style="endArrow=none;html=1;rounded=0;entryX=1;entryY=0.5;entryDx=0;entryDy=0;exitX=0;exitY=0.75;exitDx=0;exitDy=0;" edge="1" parent="1" source="6C1804AICCskK-gqlRZX-21" target="ZLAW2IqAQ5H3w_CEQuQ1-1">
          <mxGeometry width="50" height="50" relative="1" as="geometry">
            <mxPoint x="-309" y="2490" as="sourcePoint" />
            <mxPoint x="-334" y="2350" as="targetPoint" />
          </mxGeometry>
        </mxCell>
        <mxCell id="6C1804AICCskK-gqlRZX-49" value="" style="endArrow=none;html=1;rounded=0;entryX=1;entryY=0.5;entryDx=0;entryDy=0;exitX=0;exitY=0.25;exitDx=0;exitDy=0;" edge="1" parent="1" source="6C1804AICCskK-gqlRZX-21" target="ZLAW2IqAQ5H3w_CEQuQ1-2">
          <mxGeometry width="50" height="50" relative="1" as="geometry">
            <mxPoint x="-299" y="2500" as="sourcePoint" />
            <mxPoint x="-334" y="2270" as="targetPoint" />
          </mxGeometry>
        </mxCell>
        <mxCell id="6C1804AICCskK-gqlRZX-50" value="" style="endArrow=none;html=1;rounded=0;entryX=0;entryY=0.5;entryDx=0;entryDy=0;exitX=1;exitY=0.75;exitDx=0;exitDy=0;" edge="1" parent="1" source="6C1804AICCskK-gqlRZX-21" target="6C1804AICCskK-gqlRZX-32">
          <mxGeometry width="50" height="50" relative="1" as="geometry">
            <mxPoint x="-289" y="2510" as="sourcePoint" />
            <mxPoint x="-354" y="2500" as="targetPoint" />
          </mxGeometry>
        </mxCell>
        <mxCell id="6C1804AICCskK-gqlRZX-51" value="" style="endArrow=none;html=1;rounded=0;entryX=1;entryY=0.5;entryDx=0;entryDy=0;exitX=0;exitY=0.5;exitDx=0;exitDy=0;" edge="1" parent="1" source="6C1804AICCskK-gqlRZX-31" target="6C1804AICCskK-gqlRZX-21">
          <mxGeometry width="50" height="50" relative="1" as="geometry">
            <mxPoint x="-279" y="2520" as="sourcePoint" />
            <mxPoint x="-344" y="2510" as="targetPoint" />
          </mxGeometry>
        </mxCell>
        <mxCell id="6C1804AICCskK-gqlRZX-52" value="" style="endArrow=none;html=1;rounded=0;entryX=0;entryY=0.5;entryDx=0;entryDy=0;exitX=1;exitY=0.25;exitDx=0;exitDy=0;" edge="1" parent="1" source="6C1804AICCskK-gqlRZX-21" target="6C1804AICCskK-gqlRZX-33">
          <mxGeometry width="50" height="50" relative="1" as="geometry">
            <mxPoint x="-269" y="2530" as="sourcePoint" />
            <mxPoint x="-334" y="2520" as="targetPoint" />
          </mxGeometry>
        </mxCell>
        <mxCell id="6C1804AICCskK-gqlRZX-53" value="" style="endArrow=none;html=1;rounded=0;exitX=0.75;exitY=1;exitDx=0;exitDy=0;entryX=0.5;entryY=0;entryDx=0;entryDy=0;" edge="1" parent="1" source="6C1804AICCskK-gqlRZX-1" target="6C1804AICCskK-gqlRZX-10">
          <mxGeometry width="50" height="50" relative="1" as="geometry">
            <mxPoint x="-315" y="1730" as="sourcePoint" />
            <mxPoint x="-265" y="1680" as="targetPoint" />
          </mxGeometry>
        </mxCell>
        <mxCell id="6C1804AICCskK-gqlRZX-54" value="" style="endArrow=none;html=1;rounded=0;exitX=1;exitY=1;exitDx=0;exitDy=0;entryX=0;entryY=0.5;entryDx=0;entryDy=0;" edge="1" parent="1" source="6C1804AICCskK-gqlRZX-1" target="6C1804AICCskK-gqlRZX-4">
          <mxGeometry width="50" height="50" relative="1" as="geometry">
            <mxPoint x="-225" y="1620" as="sourcePoint" />
            <mxPoint x="-185" y="1660" as="targetPoint" />
          </mxGeometry>
        </mxCell>
        <mxCell id="6C1804AICCskK-gqlRZX-55" value="" style="endArrow=none;html=1;rounded=0;entryX=0.5;entryY=1;entryDx=0;entryDy=0;" edge="1" parent="1" source="6C1804AICCskK-gqlRZX-20" target="6C1804AICCskK-gqlRZX-30">
          <mxGeometry width="50" height="50" relative="1" as="geometry">
            <mxPoint x="-195.14" y="2119" as="sourcePoint" />
            <mxPoint x="-178.14" y="2084" as="targetPoint" />
          </mxGeometry>
        </mxCell>
        <mxCell id="6C1804AICCskK-gqlRZX-56" value="" style="endArrow=none;html=1;rounded=0;exitX=1;exitY=0.75;exitDx=0;exitDy=0;entryX=0;entryY=0.5;entryDx=0;entryDy=0;" edge="1" parent="1" source="6C1804AICCskK-gqlRZX-1" target="6C1804AICCskK-gqlRZX-12">
          <mxGeometry width="50" height="50" relative="1" as="geometry">
            <mxPoint x="-195" y="1620" as="sourcePoint" />
            <mxPoint x="-132" y="1650" as="targetPoint" />
          </mxGeometry>
        </mxCell>
        <mxCell id="6C1804AICCskK-gqlRZX-57" value="" style="endArrow=none;html=1;rounded=0;entryX=0.5;entryY=1;entryDx=0;entryDy=0;exitX=0.75;exitY=0;exitDx=0;exitDy=0;" edge="1" parent="1" source="6C1804AICCskK-gqlRZX-20" target="6C1804AICCskK-gqlRZX-29">
          <mxGeometry width="50" height="50" relative="1" as="geometry">
            <mxPoint x="-185.14" y="2129" as="sourcePoint" />
            <mxPoint x="-168.14" y="2094" as="targetPoint" />
          </mxGeometry>
        </mxCell>
        <mxCell id="6C1804AICCskK-gqlRZX-58" value="" style="endArrow=none;html=1;rounded=0;exitX=1;exitY=0.5;exitDx=0;exitDy=0;entryX=0;entryY=0.5;entryDx=0;entryDy=0;" edge="1" parent="1" source="6C1804AICCskK-gqlRZX-1" target="6C1804AICCskK-gqlRZX-9">
          <mxGeometry width="50" height="50" relative="1" as="geometry">
            <mxPoint x="-195" y="1605" as="sourcePoint" />
            <mxPoint x="-132" y="1620" as="targetPoint" />
          </mxGeometry>
        </mxCell>
        <mxCell id="6C1804AICCskK-gqlRZX-59" value="" style="endArrow=none;html=1;rounded=0;exitX=1;exitY=0.25;exitDx=0;exitDy=0;" edge="1" parent="1" source="6C1804AICCskK-gqlRZX-1">
          <mxGeometry width="50" height="50" relative="1" as="geometry">
            <mxPoint x="-195" y="1590" as="sourcePoint" />
            <mxPoint x="-145" y="1550" as="targetPoint" />
          </mxGeometry>
        </mxCell>
        <mxCell id="6C1804AICCskK-gqlRZX-60" value="" style="endArrow=none;html=1;rounded=0;entryX=0;entryY=0.5;entryDx=0;entryDy=0;exitX=1;exitY=0;exitDx=0;exitDy=0;" edge="1" parent="1" source="6C1804AICCskK-gqlRZX-20" target="6C1804AICCskK-gqlRZX-26">
          <mxGeometry width="50" height="50" relative="1" as="geometry">
            <mxPoint x="-145.14" y="1999" as="sourcePoint" />
            <mxPoint x="-195.14" y="1999" as="targetPoint" />
          </mxGeometry>
        </mxCell>
        <mxCell id="6C1804AICCskK-gqlRZX-61" value="" style="endArrow=none;html=1;rounded=0;exitX=1;exitY=0;exitDx=0;exitDy=0;entryX=0;entryY=0.5;entryDx=0;entryDy=0;" edge="1" parent="1" source="6C1804AICCskK-gqlRZX-1" target="6C1804AICCskK-gqlRZX-8">
          <mxGeometry width="50" height="50" relative="1" as="geometry">
            <mxPoint x="-195" y="1560" as="sourcePoint" />
            <mxPoint x="-135" y="1560" as="targetPoint" />
          </mxGeometry>
        </mxCell>
        <mxCell id="6C1804AICCskK-gqlRZX-62" value="" style="endArrow=none;html=1;rounded=0;entryX=1;entryY=0.5;entryDx=0;entryDy=0;exitX=0;exitY=0.5;exitDx=0;exitDy=0;" edge="1" parent="1" source="6C1804AICCskK-gqlRZX-27" target="6C1804AICCskK-gqlRZX-20">
          <mxGeometry width="50" height="50" relative="1" as="geometry">
            <mxPoint x="-175.14" y="2139" as="sourcePoint" />
            <mxPoint x="-158.14" y="2104" as="targetPoint" />
          </mxGeometry>
        </mxCell>
        <mxCell id="6C1804AICCskK-gqlRZX-63" value="" style="endArrow=none;html=1;rounded=0;exitX=0.75;exitY=0;exitDx=0;exitDy=0;entryX=0.5;entryY=1;entryDx=0;entryDy=0;" edge="1" parent="1" source="6C1804AICCskK-gqlRZX-1" target="6C1804AICCskK-gqlRZX-5">
          <mxGeometry width="50" height="50" relative="1" as="geometry">
            <mxPoint x="-195" y="1575" as="sourcePoint" />
            <mxPoint x="-135" y="1560" as="targetPoint" />
          </mxGeometry>
        </mxCell>
        <mxCell id="6C1804AICCskK-gqlRZX-64" value="" style="endArrow=none;html=1;rounded=0;exitX=0.25;exitY=0;exitDx=0;exitDy=0;entryX=0.5;entryY=1;entryDx=0;entryDy=0;" edge="1" parent="1" source="6C1804AICCskK-gqlRZX-1" target="6C1804AICCskK-gqlRZX-6">
          <mxGeometry width="50" height="50" relative="1" as="geometry">
            <mxPoint x="-225" y="1560" as="sourcePoint" />
            <mxPoint x="-190" y="1540" as="targetPoint" />
          </mxGeometry>
        </mxCell>
        <mxCell id="6C1804AICCskK-gqlRZX-65" value="" style="endArrow=none;html=1;rounded=0;exitX=1;exitY=0.5;exitDx=0;exitDy=0;entryX=0;entryY=0.5;entryDx=0;entryDy=0;" edge="1" parent="1" source="6C1804AICCskK-gqlRZX-3" target="6C1804AICCskK-gqlRZX-15">
          <mxGeometry width="50" height="50" relative="1" as="geometry">
            <mxPoint x="-199" y="1400" as="sourcePoint" />
            <mxPoint x="-136" y="1370" as="targetPoint" />
          </mxGeometry>
        </mxCell>
        <mxCell id="6C1804AICCskK-gqlRZX-66" value="" style="endArrow=none;html=1;rounded=0;exitX=0.75;exitY=1;exitDx=0;exitDy=0;entryX=0.5;entryY=0;entryDx=0;entryDy=0;" edge="1" parent="1" source="6C1804AICCskK-gqlRZX-3" target="6C1804AICCskK-gqlRZX-13">
          <mxGeometry width="50" height="50" relative="1" as="geometry">
            <mxPoint x="-189" y="1220" as="sourcePoint" />
            <mxPoint x="-164" y="1220" as="targetPoint" />
          </mxGeometry>
        </mxCell>
        <mxCell id="6C1804AICCskK-gqlRZX-67" value="" style="endArrow=none;html=1;rounded=0;entryX=1;entryY=1;entryDx=0;entryDy=0;exitX=0;exitY=0.5;exitDx=0;exitDy=0;" edge="1" parent="1" source="6C1804AICCskK-gqlRZX-28" target="6C1804AICCskK-gqlRZX-20">
          <mxGeometry width="50" height="50" relative="1" as="geometry">
            <mxPoint x="-135.14" y="2009" as="sourcePoint" />
            <mxPoint x="-185.14" y="2009" as="targetPoint" />
          </mxGeometry>
        </mxCell>
        <mxCell id="6C1804AICCskK-gqlRZX-68" value="" style="endArrow=none;html=1;rounded=0;exitX=0.75;exitY=0;exitDx=0;exitDy=0;entryX=0.5;entryY=1;entryDx=0;entryDy=0;" edge="1" parent="1" source="6C1804AICCskK-gqlRZX-3" target="6C1804AICCskK-gqlRZX-17">
          <mxGeometry width="50" height="50" relative="1" as="geometry">
            <mxPoint x="-219" y="1250" as="sourcePoint" />
            <mxPoint x="-154" y="1290" as="targetPoint" />
          </mxGeometry>
        </mxCell>
        <mxCell id="6C1804AICCskK-gqlRZX-69" value="" style="endArrow=none;html=1;rounded=0;exitX=1;exitY=0.25;exitDx=0;exitDy=0;entryX=0;entryY=0.5;entryDx=0;entryDy=0;" edge="1" parent="1" source="6C1804AICCskK-gqlRZX-19" target="6C1804AICCskK-gqlRZX-22">
          <mxGeometry width="50" height="50" relative="1" as="geometry">
            <mxPoint x="-213.37" y="1100" as="sourcePoint" />
            <mxPoint x="-148.37" y="1080" as="targetPoint" />
          </mxGeometry>
        </mxCell>
        <mxCell id="6C1804AICCskK-gqlRZX-70" value="" style="endArrow=none;html=1;rounded=0;exitX=1;exitY=0.5;exitDx=0;exitDy=0;entryX=0;entryY=0.5;entryDx=0;entryDy=0;" edge="1" parent="1" source="6C1804AICCskK-gqlRZX-19" target="6C1804AICCskK-gqlRZX-23">
          <mxGeometry width="50" height="50" relative="1" as="geometry">
            <mxPoint x="-223.37" y="1090" as="sourcePoint" />
            <mxPoint x="-158.37" y="1070" as="targetPoint" />
          </mxGeometry>
        </mxCell>
        <mxCell id="6C1804AICCskK-gqlRZX-71" value="" style="endArrow=none;html=1;rounded=0;exitX=0;exitY=0.5;exitDx=0;exitDy=0;entryX=1;entryY=0.5;entryDx=0;entryDy=0;" edge="1" parent="1" source="6C1804AICCskK-gqlRZX-3" target="6C1804AICCskK-gqlRZX-14">
          <mxGeometry width="50" height="50" relative="1" as="geometry">
            <mxPoint x="-219" y="1190" as="sourcePoint" />
            <mxPoint x="-318.9999999999999" y="1160" as="targetPoint" />
          </mxGeometry>
        </mxCell>
        <mxCell id="6C1804AICCskK-gqlRZX-72" value="" style="endArrow=none;html=1;rounded=0;entryX=0;entryY=0.5;entryDx=0;entryDy=0;exitX=1;exitY=1;exitDx=0;exitDy=0;" edge="1" parent="1" source="6C1804AICCskK-gqlRZX-19" target="6C1804AICCskK-gqlRZX-25">
          <mxGeometry width="50" height="50" relative="1" as="geometry">
            <mxPoint x="-313.37" y="1050" as="sourcePoint" />
            <mxPoint x="-263.37" y="1000" as="targetPoint" />
          </mxGeometry>
        </mxCell>
        <mxCell id="6C1804AICCskK-gqlRZX-73" value="" style="endArrow=none;html=1;rounded=0;entryX=0;entryY=0.5;entryDx=0;entryDy=0;exitX=1;exitY=0;exitDx=0;exitDy=0;" edge="1" parent="1" source="6C1804AICCskK-gqlRZX-19" target="6C1804AICCskK-gqlRZX-24">
          <mxGeometry width="50" height="50" relative="1" as="geometry">
            <mxPoint x="-263.37" y="970" as="sourcePoint" />
            <mxPoint x="-213.37" y="920" as="targetPoint" />
          </mxGeometry>
        </mxCell>
        <mxCell id="6C1804AICCskK-gqlRZX-74" value="" style="endArrow=none;html=1;rounded=0;exitX=0;exitY=0.5;exitDx=0;exitDy=0;" edge="1" parent="1" source="6C1804AICCskK-gqlRZX-16">
          <mxGeometry width="50" height="50" relative="1" as="geometry">
            <mxPoint x="-165.74999999999557" y="1230" as="sourcePoint" />
            <mxPoint x="-199" y="1210" as="targetPoint" />
          </mxGeometry>
        </mxCell>
        <mxCell id="6C1804AICCskK-gqlRZX-75" value="" style="edgeStyle=orthogonalEdgeStyle;rounded=0;orthogonalLoop=1;jettySize=auto;html=1;entryX=0.5;entryY=0;entryDx=0;entryDy=0;endArrow=none;startFill=0;exitX=0.5;exitY=1;exitDx=0;exitDy=0;" edge="1" parent="1" source="6C1804AICCskK-gqlRZX-19" target="6C1804AICCskK-gqlRZX-76">
          <mxGeometry relative="1" as="geometry">
            <mxPoint x="-213.38" y="900" as="targetPoint" />
            <Array as="points" />
            <mxPoint x="-213.38" y="990" as="sourcePoint" />
          </mxGeometry>
        </mxCell>
        <mxCell id="rEhXfot8uibiOhCagt_M-24" value="(1:N)" style="edgeLabel;html=1;align=center;verticalAlign=middle;resizable=0;points=[];" connectable="0" vertex="1" parent="6C1804AICCskK-gqlRZX-75">
          <mxGeometry x="0.0333" y="2" relative="1" as="geometry">
            <mxPoint as="offset" />
          </mxGeometry>
        </mxCell>
        <mxCell id="6C1804AICCskK-gqlRZX-76" value="R3" style="rhombus;whiteSpace=wrap;html=1;" vertex="1" parent="1">
          <mxGeometry x="-300" y="1010" width="80" height="80" as="geometry" />
        </mxCell>
        <mxCell id="6C1804AICCskK-gqlRZX-77" value="" style="edgeStyle=orthogonalEdgeStyle;rounded=0;orthogonalLoop=1;jettySize=auto;html=1;endArrow=none;startFill=0;entryX=0.5;entryY=0;entryDx=0;entryDy=0;" edge="1" parent="1" source="6C1804AICCskK-gqlRZX-3" target="6C1804AICCskK-gqlRZX-78">
          <mxGeometry relative="1" as="geometry">
            <Array as="points">
              <mxPoint x="-263.38" y="1420" />
              <mxPoint x="-263.38" y="1420" />
            </Array>
            <mxPoint x="-263.38" y="1380" as="sourcePoint" />
            <mxPoint x="-265.38" y="1830" as="targetPoint" />
          </mxGeometry>
        </mxCell>
        <mxCell id="rEhXfot8uibiOhCagt_M-26" value="(1:N)" style="edgeLabel;html=1;align=center;verticalAlign=middle;resizable=0;points=[];" connectable="0" vertex="1" parent="6C1804AICCskK-gqlRZX-77">
          <mxGeometry x="-0.6313" y="-2" relative="1" as="geometry">
            <mxPoint as="offset" />
          </mxGeometry>
        </mxCell>
        <mxCell id="6C1804AICCskK-gqlRZX-78" value="R4" style="rhombus;whiteSpace=wrap;html=1;" vertex="1" parent="1">
          <mxGeometry x="-303.38" y="1340" width="80" height="80" as="geometry" />
        </mxCell>
        <mxCell id="6C1804AICCskK-gqlRZX-79" style="edgeStyle=orthogonalEdgeStyle;rounded=0;orthogonalLoop=1;jettySize=auto;html=1;endArrow=none;startFill=0;exitX=0.5;exitY=1;exitDx=0;exitDy=0;entryX=0.5;entryY=0;entryDx=0;entryDy=0;" edge="1" parent="1" source="6C1804AICCskK-gqlRZX-81" target="6C1804AICCskK-gqlRZX-20">
          <mxGeometry relative="1" as="geometry">
            <Array as="points">
              <mxPoint x="-265.52" y="1854" />
              <mxPoint x="-265.52" y="2039" />
            </Array>
            <mxPoint x="-266.52" y="1714" as="sourcePoint" />
            <mxPoint x="-266.52" y="1844" as="targetPoint" />
          </mxGeometry>
        </mxCell>
        <mxCell id="rEhXfot8uibiOhCagt_M-29" value="(1:1)" style="edgeLabel;html=1;align=center;verticalAlign=middle;resizable=0;points=[];" connectable="0" vertex="1" parent="6C1804AICCskK-gqlRZX-79">
          <mxGeometry x="-0.1936" y="-1" relative="1" as="geometry">
            <mxPoint as="offset" />
          </mxGeometry>
        </mxCell>
        <mxCell id="6C1804AICCskK-gqlRZX-80" value="" style="edgeStyle=orthogonalEdgeStyle;rounded=0;orthogonalLoop=1;jettySize=auto;html=1;endArrow=none;startFill=0;exitX=0.5;exitY=1;exitDx=0;exitDy=0;entryX=0.5;entryY=0;entryDx=0;entryDy=0;" edge="1" parent="1" source="6C1804AICCskK-gqlRZX-1" target="6C1804AICCskK-gqlRZX-81">
          <mxGeometry relative="1" as="geometry">
            <Array as="points" />
            <mxPoint x="-265.38" y="1820" as="sourcePoint" />
            <mxPoint x="-263.38" y="2245" as="targetPoint" />
          </mxGeometry>
        </mxCell>
        <mxCell id="rEhXfot8uibiOhCagt_M-28" value="(1:N)" style="edgeLabel;html=1;align=center;verticalAlign=middle;resizable=0;points=[];" connectable="0" vertex="1" parent="6C1804AICCskK-gqlRZX-80">
          <mxGeometry x="0.3606" y="1" relative="1" as="geometry">
            <mxPoint as="offset" />
          </mxGeometry>
        </mxCell>
        <mxCell id="6C1804AICCskK-gqlRZX-81" value="R5" style="rhombus;whiteSpace=wrap;html=1;" vertex="1" parent="1">
          <mxGeometry x="-305.14" y="1754" width="80" height="80" as="geometry" />
        </mxCell>
        <mxCell id="6C1804AICCskK-gqlRZX-82" value="R6" style="rhombus;whiteSpace=wrap;html=1;" vertex="1" parent="1">
          <mxGeometry x="-299" y="2110" width="80" height="80" as="geometry" />
        </mxCell>
        <mxCell id="6C1804AICCskK-gqlRZX-83" value="R7" style="rhombus;whiteSpace=wrap;html=1;" vertex="1" parent="1">
          <mxGeometry x="-300" y="2470" width="80" height="80" as="geometry" />
        </mxCell>
        <mxCell id="6C1804AICCskK-gqlRZX-84" value="" style="endArrow=none;html=1;rounded=0;entryX=0.5;entryY=0;entryDx=0;entryDy=0;exitX=0.5;exitY=1;exitDx=0;exitDy=0;" edge="1" parent="1" source="6C1804AICCskK-gqlRZX-40" target="6C1804AICCskK-gqlRZX-85">
          <mxGeometry width="50" height="50" relative="1" as="geometry">
            <mxPoint x="-260" y="2700" as="sourcePoint" />
            <mxPoint x="-260" y="3030" as="targetPoint" />
            <Array as="points" />
          </mxGeometry>
        </mxCell>
        <mxCell id="rEhXfot8uibiOhCagt_M-34" value="(1:N)" style="edgeLabel;html=1;align=center;verticalAlign=middle;resizable=0;points=[];" connectable="0" vertex="1" parent="6C1804AICCskK-gqlRZX-84">
          <mxGeometry x="0.0209" y="2" relative="1" as="geometry">
            <mxPoint as="offset" />
          </mxGeometry>
        </mxCell>
        <mxCell id="6C1804AICCskK-gqlRZX-85" value="R8" style="rhombus;whiteSpace=wrap;html=1;" vertex="1" parent="1">
          <mxGeometry x="-300" y="2840" width="80" height="80" as="geometry" />
        </mxCell>
        <mxCell id="6C1804AICCskK-gqlRZX-86" value="" style="endArrow=none;html=1;rounded=0;exitX=0.5;exitY=0;exitDx=0;exitDy=0;" edge="1" parent="1" source="6C1804AICCskK-gqlRZX-19">
          <mxGeometry width="50" height="50" relative="1" as="geometry">
            <mxPoint x="-646" y="920" as="sourcePoint" />
            <mxPoint x="-440" y="760" as="targetPoint" />
          </mxGeometry>
        </mxCell>
        <mxCell id="rEhXfot8uibiOhCagt_M-22" value="(1:1)" style="edgeLabel;html=1;align=center;verticalAlign=middle;resizable=0;points=[];" connectable="0" vertex="1" parent="6C1804AICCskK-gqlRZX-86">
          <mxGeometry x="0.191" y="-3" relative="1" as="geometry">
            <mxPoint as="offset" />
          </mxGeometry>
        </mxCell>
        <mxCell id="ZLAW2IqAQ5H3w_CEQuQ1-1" value="Data_Instalação" style="ellipse;whiteSpace=wrap;html=1;" vertex="1" parent="1">
          <mxGeometry x="-445.62" y="2320" width="90" height="20" as="geometry" />
        </mxCell>
        <mxCell id="ZLAW2IqAQ5H3w_CEQuQ1-2" value="Status" style="ellipse;whiteSpace=wrap;html=1;" vertex="1" parent="1">
          <mxGeometry x="-445.62" y="2240" width="90" height="20" as="geometry" />
        </mxCell>
        <mxCell id="eVi2e92E73o1z0uFLRz4-1" value="ID_Modulo" style="ellipse;whiteSpace=wrap;html=1;" vertex="1" parent="1">
          <mxGeometry x="-413" y="3140" width="70.62" height="20" as="geometry" />
        </mxCell>
        <mxCell id="rEhXfot8uibiOhCagt_M-1" value="&lt;u&gt;ID_Indis&lt;/u&gt;" style="ellipse;whiteSpace=wrap;html=1;" vertex="1" parent="1">
          <mxGeometry x="-505" width="50" height="20" as="geometry" />
        </mxCell>
        <mxCell id="rEhXfot8uibiOhCagt_M-2" value="" style="endArrow=none;html=1;rounded=0;exitX=0.5;exitY=0;exitDx=0;exitDy=0;entryX=0.5;entryY=1;entryDx=0;entryDy=0;" edge="1" parent="1" source="YrNmfHhe3l2zanrwiK9t-1" target="rEhXfot8uibiOhCagt_M-1">
          <mxGeometry width="50" height="50" relative="1" as="geometry">
            <mxPoint x="-520" y="60" as="sourcePoint" />
            <mxPoint x="-590" y="40" as="targetPoint" />
          </mxGeometry>
        </mxCell>
        <mxCell id="rEhXfot8uibiOhCagt_M-3" value="&lt;u&gt;ID_criçaoPO&lt;/u&gt;" style="ellipse;whiteSpace=wrap;html=1;" vertex="1" parent="1">
          <mxGeometry x="-389" y="240" width="99" height="20" as="geometry" />
        </mxCell>
        <mxCell id="rEhXfot8uibiOhCagt_M-4" value="" style="endArrow=none;html=1;rounded=0;exitX=1;exitY=0.25;exitDx=0;exitDy=0;" edge="1" parent="1" source="YrNmfHhe3l2zanrwiK9t-3">
          <mxGeometry width="50" height="50" relative="1" as="geometry">
            <mxPoint x="-420" y="280" as="sourcePoint" />
            <mxPoint x="-390" y="250" as="targetPoint" />
          </mxGeometry>
        </mxCell>
        <mxCell id="rEhXfot8uibiOhCagt_M-6" value="Data_criação" style="ellipse;whiteSpace=wrap;html=1;" vertex="1" parent="1">
          <mxGeometry x="-386.75" y="270" width="106.75" height="20" as="geometry" />
        </mxCell>
        <mxCell id="rEhXfot8uibiOhCagt_M-7" value="" style="endArrow=none;html=1;rounded=0;exitX=1;exitY=0.5;exitDx=0;exitDy=0;entryX=0;entryY=0.5;entryDx=0;entryDy=0;" edge="1" parent="1" source="YrNmfHhe3l2zanrwiK9t-3" target="rEhXfot8uibiOhCagt_M-6">
          <mxGeometry width="50" height="50" relative="1" as="geometry">
            <mxPoint x="-410" y="275" as="sourcePoint" />
            <mxPoint x="-390" y="280" as="targetPoint" />
          </mxGeometry>
        </mxCell>
        <mxCell id="rEhXfot8uibiOhCagt_M-8" value="ID_Indis" style="ellipse;whiteSpace=wrap;html=1;" vertex="1" parent="1">
          <mxGeometry x="-360.62" y="300" width="60.62" height="20" as="geometry" />
        </mxCell>
        <mxCell id="rEhXfot8uibiOhCagt_M-9" value="" style="endArrow=none;html=1;rounded=0;exitX=1;exitY=0.75;exitDx=0;exitDy=0;entryX=0;entryY=0.5;entryDx=0;entryDy=0;" edge="1" parent="1" source="YrNmfHhe3l2zanrwiK9t-3" target="rEhXfot8uibiOhCagt_M-8">
          <mxGeometry width="50" height="50" relative="1" as="geometry">
            <mxPoint x="-345.38" y="380" as="sourcePoint" />
            <mxPoint x="-455.38" y="390" as="targetPoint" />
          </mxGeometry>
        </mxCell>
        <mxCell id="rEhXfot8uibiOhCagt_M-11" value="Descrição" style="ellipse;whiteSpace=wrap;html=1;" vertex="1" parent="1">
          <mxGeometry x="-385" y="70" width="75" height="20" as="geometry" />
        </mxCell>
        <mxCell id="rEhXfot8uibiOhCagt_M-12" value="" style="endArrow=none;html=1;rounded=0;entryX=0;entryY=0.5;entryDx=0;entryDy=0;exitX=1;exitY=1;exitDx=0;exitDy=0;" edge="1" parent="1" source="YrNmfHhe3l2zanrwiK9t-1" target="rEhXfot8uibiOhCagt_M-11">
          <mxGeometry width="50" height="50" relative="1" as="geometry">
            <mxPoint x="-420" y="60" as="sourcePoint" />
            <mxPoint x="-365" y="50" as="targetPoint" />
          </mxGeometry>
        </mxCell>
        <mxCell id="rEhXfot8uibiOhCagt_M-13" value="Status" style="ellipse;whiteSpace=wrap;html=1;" vertex="1" parent="1">
          <mxGeometry x="-370" y="330" width="50" height="20" as="geometry" />
        </mxCell>
        <mxCell id="rEhXfot8uibiOhCagt_M-14" value="" style="endArrow=none;html=1;rounded=0;exitX=1;exitY=1;exitDx=0;exitDy=0;entryX=0;entryY=0.5;entryDx=0;entryDy=0;" edge="1" parent="1" source="YrNmfHhe3l2zanrwiK9t-3" target="rEhXfot8uibiOhCagt_M-13">
          <mxGeometry width="50" height="50" relative="1" as="geometry">
            <mxPoint x="-410" y="305" as="sourcePoint" />
            <mxPoint x="-351" y="320" as="targetPoint" />
          </mxGeometry>
        </mxCell>
        <mxCell id="rEhXfot8uibiOhCagt_M-19" value="ID_Equipamento" style="ellipse;whiteSpace=wrap;html=1;" vertex="1" parent="1">
          <mxGeometry x="-700" y="80" width="110" height="30" as="geometry" />
        </mxCell>
        <mxCell id="rEhXfot8uibiOhCagt_M-20" value="" style="endArrow=none;html=1;rounded=0;entryX=1;entryY=0.5;entryDx=0;entryDy=0;exitX=0;exitY=1;exitDx=0;exitDy=0;" edge="1" parent="1" source="YrNmfHhe3l2zanrwiK9t-1" target="rEhXfot8uibiOhCagt_M-19">
          <mxGeometry width="50" height="50" relative="1" as="geometry">
            <mxPoint x="-520" y="70" as="sourcePoint" />
            <mxPoint x="-612" y="67" as="targetPoint" />
          </mxGeometry>
        </mxCell>
        <mxCell id="rEhXfot8uibiOhCagt_M-36" value="ID_Tracker" style="ellipse;whiteSpace=wrap;html=1;fontStyle=4" vertex="1" parent="1">
          <mxGeometry x="-191.5" y="2240" width="71.5" height="20" as="geometry" />
        </mxCell>
        <mxCell id="rEhXfot8uibiOhCagt_M-37" value="" style="endArrow=none;html=1;rounded=0;entryX=0;entryY=1;entryDx=0;entryDy=0;exitX=1;exitY=0;exitDx=0;exitDy=0;" edge="1" parent="1" source="6C1804AICCskK-gqlRZX-21" target="rEhXfot8uibiOhCagt_M-36">
          <mxGeometry width="50" height="50" relative="1" as="geometry">
            <mxPoint x="-189" y="2315" as="sourcePoint" />
            <mxPoint x="-145" y="2300" as="targetPoint" />
          </mxGeometry>
        </mxCell>
        <mxCell id="rEhXfot8uibiOhCagt_M-38" value="ID_Placa" style="ellipse;whiteSpace=wrap;html=1;" vertex="1" parent="1">
          <mxGeometry x="-533" y="2640" width="120" height="20" as="geometry" />
        </mxCell>
        <mxCell id="rEhXfot8uibiOhCagt_M-39" value="" style="endArrow=none;html=1;rounded=0;entryX=1;entryY=0.5;entryDx=0;entryDy=0;exitX=0;exitY=0;exitDx=0;exitDy=0;" edge="1" parent="1" source="6C1804AICCskK-gqlRZX-40" target="rEhXfot8uibiOhCagt_M-38">
          <mxGeometry width="50" height="50" relative="1" as="geometry">
            <mxPoint x="-190" y="2650" as="sourcePoint" />
            <mxPoint x="-165" y="2650" as="targetPoint" />
          </mxGeometry>
        </mxCell>
        <mxCell id="rEhXfot8uibiOhCagt_M-40" value="Status" style="ellipse;whiteSpace=wrap;html=1;" vertex="1" parent="1">
          <mxGeometry x="-540" y="2690" width="120" height="20" as="geometry" />
        </mxCell>
        <mxCell id="rEhXfot8uibiOhCagt_M-41" value="" style="endArrow=none;html=1;rounded=0;entryX=1;entryY=0.5;entryDx=0;entryDy=0;exitX=0;exitY=0.25;exitDx=0;exitDy=0;" edge="1" parent="1" source="6C1804AICCskK-gqlRZX-40" target="rEhXfot8uibiOhCagt_M-40">
          <mxGeometry width="50" height="50" relative="1" as="geometry">
            <mxPoint x="-310" y="2650" as="sourcePoint" />
            <mxPoint x="-403" y="2660" as="targetPoint" />
          </mxGeometry>
        </mxCell>
        <mxCell id="rEhXfot8uibiOhCagt_M-42" value="Potência" style="ellipse;whiteSpace=wrap;html=1;" vertex="1" parent="1">
          <mxGeometry x="-475" y="3050" width="85" height="20" as="geometry" />
        </mxCell>
        <mxCell id="rEhXfot8uibiOhCagt_M-43" value="Status" style="ellipse;whiteSpace=wrap;html=1;" vertex="1" parent="1">
          <mxGeometry x="-291.83" y="3150" width="53.38" height="20" as="geometry" />
        </mxCell>
        <mxCell id="rEhXfot8uibiOhCagt_M-44" value="" style="endArrow=none;html=1;rounded=0;entryX=0.5;entryY=1;entryDx=0;entryDy=0;exitX=0.5;exitY=0;exitDx=0;exitDy=0;" edge="1" parent="1" source="rEhXfot8uibiOhCagt_M-43" target="6C1804AICCskK-gqlRZX-41">
          <mxGeometry width="50" height="50" relative="1" as="geometry">
            <mxPoint x="-160" y="3120" as="sourcePoint" />
            <mxPoint x="-220" y="3100" as="targetPoint" />
          </mxGeometry>
        </mxCell>
        <mxCell id="rEhXfot8uibiOhCagt_M-45" value="" style="endArrow=none;html=1;rounded=0;entryX=0;entryY=0.5;entryDx=0;entryDy=0;exitX=1;exitY=0.5;exitDx=0;exitDy=0;" edge="1" parent="1" source="rEhXfot8uibiOhCagt_M-42" target="6C1804AICCskK-gqlRZX-41">
          <mxGeometry width="50" height="50" relative="1" as="geometry">
            <mxPoint x="-150" y="3130" as="sourcePoint" />
            <mxPoint x="-210" y="3110" as="targetPoint" />
          </mxGeometry>
        </mxCell>
      </root>
    </mxGraphModel>
  </diagram>
</mxfile>
